<?xml version="1.0" encoding="utf-8"?>
<!-- Generator: Adobe Illustrator 18.1.0, SVG Export Plug-In . SVG Version: 6.00 Build 0)  -->
<svg version="1.1" id="Layer_1" xmlns="http://www.w3.org/2000/svg" xmlns:xlink="http://www.w3.org/1999/xlink" x="0px" y="0px"
	 viewBox="-429 234.3 100 93.7" enable-background="new -429 234.3 100 93.7" xml:space="preserve">
<path d="M-340.8,302.3c0,0-0.1-0.1-0.1-0.1l-13.3-13.1l-3.4-3.3c3.4-7.6,3.5-16.6-0.7-24.4c-7.2-13.4-23.9-18.5-37.3-11.4
	c-0.3,0.2-0.6,0.3-0.8,0.5c-4.3,2.5-7.7,6-10.1,10.1c-1.6-0.8-2.7-1.5-2.8-1.6c0.2,0.1,0,0-0.1-0.1c-0.1-0.1-0.3-0.2-0.5-0.3
	c-0.1,0-0.1-0.1-0.2-0.1c-0.1,0-0.3-0.1-0.4-0.1c0,0-0.1,0-0.1,0c-0.1,0-0.3,0-0.4,0c0,0,0,0,0,0c-0.6,0.2-1.1,0.6-1.3,1.2
	c-0.1,0.2-0.1,0.5-0.1,0.7c0,0,0,0,0,0c0,0,0,0,0,0c0,0.2,0,0.4,0.1,0.7l2.4,10.3l0.8,3.2l0.7,2.9l0.2,0.9c0.4,1.9,2,2.4,3.4,1
	l3.2-3l0.9-0.8l2.1-1.9l6.4-6l0.4-0.4c0,0,0.1-0.1,0.1-0.1l0.3-0.3l0,0c0.2-0.2,0.3-0.4,0.4-0.7c0-0.1,0-0.1,0-0.2
	c0.1-0.5,0-1-0.3-1.4c-0.2-0.3-0.6-0.6-1-0.7c0,0-2.5,0.2-6.1-0.5c0.8-1.2,1.8-2.3,2.9-3.3c1.2-1.1,2.5-2,3.9-2.8
	c2.7-1.5,5.7-2.2,8.6-2.3c7.1-0.2,14,3.5,17.6,10.2c4.5,8.4,2.1,18.8-5.3,24.4c-0.3,0.2-0.5,0.4-0.8,0.6c-0.1,0.1-0.2,0.1-0.3,0.2
	c-0.1,0-0.1,0.1-0.2,0.1c-0.3,0.2-0.7,0.4-1.1,0.6c-5.3,2.9-11.9,3.3-17.7,0.5c-0.8-0.4-1.5-0.8-2.2-1.2c-0.2-0.1-0.4-0.3-0.6-0.4
	c-0.1,0-0.3-0.1-0.5-0.1c-0.3,0-0.5,0.1-0.7,0.2l-0.3,0.2l-4.2,3.3l-0.5,0.4c-0.2,0.2-0.3,0.5-0.3,0.9c0,0.3,0.1,0.5,0.2,0.8
	c0.2,0.2,0.4,0.3,0.6,0.5c1.5,1.1,3.1,2.1,4.8,2.9c6.1,2.9,12.7,3.4,18.8,1.8c0,0,0,0,0.1,0c0.3-0.1,0.5-0.1,0.8-0.2
	c1.8-0.5,3.5-1.2,5.2-2.1c0.7-0.4,1.3-0.8,2-1.2c0.1-0.1,0.2-0.1,0.3-0.2c0.2-0.1,0.4-0.3,0.6-0.4c0.1,0,0.1-0.1,0.2-0.1l2.8,2.8
	l12.9,12.7c0,0,0.1,0.1,0.1,0.1c2.2,2.2,6.3,1.7,9-1.1C-339.1,308.5-338.7,304.5-340.8,302.3z"/>
</svg>
