<?xml version="1.0" encoding="utf-8"?>
<!-- Generator: Adobe Illustrator 18.1.0, SVG Export Plug-In . SVG Version: 6.00 Build 0)  -->
<svg version="1.1" id="Layer_1" xmlns="http://www.w3.org/2000/svg" xmlns:xlink="http://www.w3.org/1999/xlink" x="0px" y="0px"
	 viewBox="-408.3 252.3 59 59" enable-background="new -408.3 252.3 59 59" xml:space="preserve">
<path d="M-356.2,276.4c-0.6-1.2-2-1.7-3.2-1.1l-4.9,2.5l-5.3-5.3c-0.4-0.4-0.9-0.6-1.4-0.6c-0.4,0.4-0.9,0.8-1.5,1.1
	c-0.1-0.5-0.2-0.9-0.3-1.4c2.5-1.6,4.2-4.4,4.2-7.6c0-4.9-4-8.9-8.9-8.9c-4.9,0-8.9,4-8.9,8.9c0,4.1,2.7,7.5,6.5,8.6
	c0.1,0.5,0.3,1,0.3,1.4c-1.5-0.4-2.9-1.2-4-2.3c-0.4,0-0.8,0-1.1,0.1l-4.6,1.7l-3.6-6.4c-0.7-1.2-2.1-1.6-3.3-0.9
	c-1.2,0.7-1.6,2.1-0.9,3.3l4.6,8.2c0.4,0.8,1.2,1.2,2.1,1.2c0.3,0,0.6-0.1,0.8-0.2l5.2-1.9l0.6,0.5l-2.4,23.8c0,1.3,1.1,2.4,2.4,2.4
	c1.3,0,2.4-1.1,2.4-2.4l2.5-12.1h3.5v12.1c0,1.3,1.1,2.4,2.4,2.4c1.3,0,2.4-1.1,2.4-2.4v-22.9l4.1,4.1c0.5,0.5,1.1,0.7,1.7,0.7
	c0.4,0,0.7-0.1,1.1-0.3l6.4-3.3C-356.1,279.1-355.6,277.6-356.2,276.4z"/>
<line fill="none" stroke="#000000" stroke-width="3" stroke-linecap="round" stroke-miterlimit="10" x1="-388.5" y1="264.4" x2="-372.2" y2="258.9"/>
<polygon points="-400.3,288.3 -401.6,278.6 -396.4,269.6 -395,277.3 "/>
</svg>
